<svg width="451" height="379" viewBox="0 0 451 379" fill="none" xmlns="http://www.w3.org/2000/svg">
<path d="M398 329C398 356.614 375.614 379 348 379C320.386 379 298 356.614 298 329C298 301.386 320.386 279 348 279C375.614 279 398 301.386 398 329Z" fill="#C7EDFF" fill-opacity="0.18"/>
<path d="M431 329C431 345.569 417.569 359 401 359C384.431 359 371 345.569 371 329C371 312.431 384.431 299 401 299C417.569 299 431 312.431 431 329Z" fill="#C7EDFF" fill-opacity="0.18"/>
<path d="M451 309C451 320.046 442.046 329 431 329C419.954 329 411 320.046 411 309C411 297.954 419.954 289 431 289C442.046 289 451 297.954 451 309Z" fill="#C7EDFF" fill-opacity="0.18"/>
<path d="M359 248C359 303.228 314.228 348 259 348C203.772 348 159 303.228 159 248C159 192.772 203.772 148 259 148C314.228 148 359 192.772 359 248Z" fill="#C7EDFF" fill-opacity="0.18"/>
<path d="M298 152.5C298 236.723 230.843 305 148 305C65.1573 305 -2 236.723 -2 152.5C-2 68.2766 65.1573 0 148 0C230.843 0 298 68.2766 298 152.5Z" fill="#C7EDFF" fill-opacity="0.18"/>
</svg>
